<?xml version="1.0" encoding="utf-8"?>
<!-- Generator: Adobe Illustrator 24.0.3, SVG Export Plug-In . SVG Version: 6.00 Build 0)  -->
<svg version="1.1" id="Capa_1" xmlns="http://www.w3.org/2000/svg" xmlns:xlink="http://www.w3.org/1999/xlink" x="0px" y="0px"
	 viewBox="0 0 300.4 297.3" style="enable-background:new 0 0 300.4 297.3;" xml:space="preserve">
<style type="text/css">
	.st0{fill:url(#SVGID_1_);}
	.st1{fill:#FFFFFF;}
	.st2{fill:#FCFCFC;}
</style>
<g>
	
		<linearGradient id="SVGID_1_" gradientUnits="userSpaceOnUse" x1="1.5583" y1="133.6417" x2="298.8417" y2="133.6417" gradientTransform="matrix(1 0 0 -1 0 282.2835)">
		<stop  offset="0" style="stop-color:#5E44CC"/>
		<stop  offset="1" style="stop-color:#FDBBBD"/>
	</linearGradient>
	<circle class="st0" cx="150.2" cy="148.6" r="148.6"/>
	<path class="st1" d="M241.8,91l-0.2-6L131,105.7v105.8c-5-1.8-9.7-2.8-15.1-2.8c-18.2,0-32.9,11.5-32.9,25.7s14.8,25.7,32.9,25.7
		s32.9-11.5,32.9-25.7c0-1.3-0.3-73.8-0.4-98.3L224,122v70.7c-5-1.8-9.7-2.8-15-2.8c-18.2,0-32.9,11.5-32.9,25.7
		s14.8,25.7,32.9,25.7c18.2,0,33-11.5,33-25.7C242,214.5,241.8,96,241.8,91z"/>
	<path class="st2" d="M124.2,78.1c0,0,17.8-11.6,21.2-17.3c1.7-2.9,2.9-6,2.7-10.2c-0.4-7.4-5.7-13.4-12.3-13.4
		c-6.5,0-11.6,5.4-11.6,5.4s-4.8-5.4-11.6-5.4c-6.6,0-12,6.1-12.3,13.4c-0.2,4.2,1,7.3,2.7,10.2C106.4,66.5,124.2,78.1,124.2,78.1z"
		/>
	<path class="st1" d="M97.2,145.2c1.7-2.9,2.9-6,2.7-10.2c-0.4-7.4-5.7-13.4-12.3-13.4c-6.5,0-11.6,5.4-11.6,5.4s-4.8-5.4-11.6-5.4
		c-6.6,0-12,6.1-12.3,13.4c-0.2,4.2,1,7.3,2.7,10.2c3.3,5.7,21.2,17.3,21.2,17.3S93.8,151,97.2,145.2z"/>
</g>
</svg>
