<?xml version="1.0" encoding="utf-8"?>
<!-- Generator: Adobe Illustrator 24.0.3, SVG Export Plug-In . SVG Version: 6.00 Build 0)  -->
<svg version="1.1" id="Capa_1" xmlns="http://www.w3.org/2000/svg" xmlns:xlink="http://www.w3.org/1999/xlink" x="0px" y="0px"
	 viewBox="0 0 283.4 283.4" style="enable-background:new 0 0 283.4 283.4;" xml:space="preserve">
<style type="text/css">
	.st0{fill:url(#SVGID_1_);}
	.st1{fill:#FFFFFF;}
	.st2{fill:#FCFCFC;}
</style>
<g>
	<linearGradient id="SVGID_1_" gradientUnits="userSpaceOnUse" x1="5.2844" y1="141.6878" x2="278.0912" y2="141.6878">
		<stop  offset="0" style="stop-color:#5E44CC"/>
		<stop  offset="1" style="stop-color:#FDBBBD"/>
	</linearGradient>
	<circle class="st0" cx="141.7" cy="141.7" r="136.4"/>
	<path class="st1" d="M237.8,83.5l-0.2-6L127,98.2V204c-5-1.8-9.7-2.8-15.1-2.8c-18.2,0-32.9,11.5-32.9,25.7s14.8,25.7,32.9,25.7
		c18.1,0,32.9-11.5,32.9-25.7c0-1.3-0.3-73.8-0.4-98.3l75.6-14.1v70.7c-5-1.8-9.7-2.8-15-2.8c-18.2,0-32.9,11.5-32.9,25.7
		s14.8,25.7,32.9,25.7c18.2,0,33-11.5,33-25.7C238,207,237.8,88.5,237.8,83.5z"/>
	<path class="st2" d="M120.2,70.6c0,0,17.8-11.6,21.2-17.3c1.7-2.9,2.9-6,2.7-10.2c-0.4-7.4-5.7-13.4-12.3-13.4
		c-6.5,0-11.6,5.4-11.6,5.4s-4.8-5.4-11.6-5.4c-6.6,0-12,6.1-12.3,13.4c-0.2,4.2,1,7.3,2.7,10.2C102.4,59,120.2,70.6,120.2,70.6z"/>
	<path class="st1" d="M93.2,137.7c1.7-2.9,2.9-6,2.7-10.2c-0.4-7.4-5.7-13.4-12.3-13.4c-6.5,0-11.6,5.4-11.6,5.4s-4.8-5.4-11.6-5.4
		c-6.6,0-12,6.1-12.3,13.4c-0.2,4.2,1,7.3,2.7,10.2C54.1,143.4,72,155,72,155S89.8,143.5,93.2,137.7z"/>
</g>
</svg>
